<svg width="430" height="932" viewBox="0 0 430 932" fill="none" xmlns="http://www.w3.org/2000/svg">
<rect width="430" height="932" fill="#F5F5F5"/>
<rect width="430" height="932" fill="white"/>
<path d="M209.861 442.909V472H204.548L191.892 453.69H191.679V472H185.528V442.909H190.926L203.483 461.205H203.739V442.909H209.861ZM219.957 472H213.366L223.408 442.909H231.335L241.363 472H234.772L227.485 449.557H227.258L219.957 472ZM219.545 460.565H235.113V465.366H219.545V460.565ZM244.864 472V442.909H264.126V447.98H251.015V454.912H262.847V459.983H251.015V472H244.864ZM293.93 453.094H287.709C287.595 452.289 287.363 451.574 287.013 450.949C286.662 450.314 286.213 449.775 285.663 449.33C285.114 448.884 284.48 448.544 283.76 448.307C283.05 448.07 282.278 447.952 281.445 447.952C279.939 447.952 278.627 448.326 277.51 449.074C276.393 449.812 275.526 450.892 274.911 452.312C274.295 453.723 273.987 455.437 273.987 457.455C273.987 459.528 274.295 461.271 274.911 462.682C275.536 464.093 276.407 465.158 277.524 465.878C278.642 466.598 279.934 466.957 281.402 466.957C282.226 466.957 282.988 466.848 283.689 466.631C284.399 466.413 285.029 466.096 285.578 465.679C286.127 465.253 286.582 464.737 286.942 464.131C287.311 463.525 287.567 462.833 287.709 462.057L293.93 462.085C293.769 463.42 293.367 464.708 292.723 465.949C292.089 467.18 291.232 468.283 290.152 469.259C289.082 470.224 287.804 470.991 286.317 471.56C284.839 472.118 283.168 472.398 281.303 472.398C278.708 472.398 276.388 471.811 274.342 470.636C272.306 469.462 270.696 467.762 269.513 465.537C268.339 463.312 267.751 460.617 267.751 457.455C267.751 454.282 268.348 451.583 269.541 449.358C270.734 447.133 272.354 445.437 274.399 444.273C276.445 443.098 278.746 442.511 281.303 442.511C282.988 442.511 284.551 442.748 285.99 443.222C287.439 443.695 288.722 444.386 289.839 445.295C290.957 446.195 291.866 447.298 292.567 448.605C293.277 449.912 293.732 451.408 293.93 453.094ZM325.074 457.455C325.074 460.627 324.473 463.326 323.27 465.551C322.077 467.777 320.448 469.476 318.384 470.651C316.329 471.815 314.018 472.398 311.452 472.398C308.866 472.398 306.546 471.811 304.491 470.636C302.437 469.462 300.813 467.762 299.619 465.537C298.426 463.312 297.83 460.617 297.83 457.455C297.83 454.282 298.426 451.583 299.619 449.358C300.813 447.133 302.437 445.437 304.491 444.273C306.546 443.098 308.866 442.511 311.452 442.511C314.018 442.511 316.329 443.098 318.384 444.273C320.448 445.437 322.077 447.133 323.27 449.358C324.473 451.583 325.074 454.282 325.074 457.455ZM318.838 457.455C318.838 455.4 318.53 453.667 317.915 452.256C317.309 450.845 316.452 449.775 315.344 449.045C314.236 448.316 312.938 447.952 311.452 447.952C309.965 447.952 308.668 448.316 307.56 449.045C306.452 449.775 305.59 450.845 304.974 452.256C304.368 453.667 304.065 455.4 304.065 457.455C304.065 459.509 304.368 461.242 304.974 462.653C305.59 464.064 306.452 465.134 307.56 465.864C308.668 466.593 309.965 466.957 311.452 466.957C312.938 466.957 314.236 466.593 315.344 465.864C316.452 465.134 317.309 464.064 317.915 462.653C318.53 461.242 318.838 459.509 318.838 457.455ZM329.63 442.909H337.215L345.227 462.455H345.567L353.579 442.909H361.164V472H355.198V453.065H354.957L347.428 471.858H343.366L335.837 452.994H335.596V472H329.63V442.909Z" fill="#6B46C1"/>
<path d="M131.542 459.754L108.053 481.487L87 458.732L110.488 437L131.542 459.754Z" stroke="#6B46C1" stroke-width="4" stroke-linejoin="round"/>
<path d="M154.542 458.754L131.053 480.487L110 457.732L133.488 436L154.542 458.754Z" stroke="#6B46C1" stroke-width="4" stroke-linejoin="round"/>
<path d="M178.542 459.754L155.053 481.487L134 458.732L157.488 437L178.542 459.754Z" stroke="#6B46C1" stroke-width="4" stroke-linejoin="round"/>
</svg>
